PathFileType	4	(X/Y/Z)	Patient4_TMGait_0pt4_01_right_07.trc.trc
DataRate	CameraRate	NumFrames	NumMarkers	Units	OrigDataRate	OrigDataStartFrame	OrigNumFrames
74.468085106383	74.468085106383	5	33	mm	74.468085106383	89	       141
Frame#	Time	Sacral			L.Shoulder			Chest			R.Shoulder			Neck			R.ASIS			L.ASIS			R.Thigh.Superior			R.Thigh.Lateral			R.Thigh.Inferior			R.Patella			L.Thigh.Superior			L.Thigh.Lateral			L.Thigh.Inferior			L.Patella			L.Shank.Superior			L.Shank.Lateral			L.Shank.Inferior			R.Shank.Superior			R.Shank.Lateral			R.Shank.Inferior			R.Heel			R.Midfoot.Superior			R.Midfoot.Lateral			R.Toe			L.Heel			L.Midfoot.Lateral			L.Midfoot.Superior			L.Toe			L.Elbow			L.Wrist			R.Elbow			R.Wrist			
		X1	Y1	Z1	X2	Y2	Z2	X3	Y3	Z3	X4	Y4	Z4	X5	Y5	Z5	X6	Y6	Z6	X7	Y7	Z7	X8	Y8	Z8	X9	Y9	Z9	X10	Y10	Z10	X11	Y11	Z11	X12	Y12	Z12	X13	Y13	Z13	X14	Y14	Z14	X15	Y15	Z15	X16	Y16	Z16	X17	Y17	Z17	X18	Y18	Z18	X19	Y19	Z19	X20	Y20	Z20	X21	Y21	Z21	X22	Y22	Z22	X23	Y23	Z23	X24	Y24	Z24	X25	Y25	Z25	X26	Y26	Z26	X27	Y27	Z27	X28	Y28	Z28	X29	Y29	Z29	X30	Y30	Z30	X31	Y31	Z31	X32	Y32	Z32	X33	Y33	Z33	

89	9.841714285714	798.235245454201	1004.153384993096	494.667257830076	955.365878146932	1429.148894733318	289.132654070652	1069.880229603342	1368.038082564614	444.737178776235	999.011457696542	1447.102547140279	621.811578201786	949.137035954310	1496.686825161209	442.817674437723	1032.788599834872	942.383897200483	598.847132915241	1005.302934569364	964.861470735952	325.454326274402	1067.022484073759	736.993202868375	582.564256461202	985.871532645077	631.132206198130	652.685515947581	1064.869550008922	569.611429679299	580.269001325638	1056.085922979106	464.295547040110	603.197761017834	1069.681437089153	758.927177743612	362.495586922405	992.351602638831	635.818794029376	303.837569535509	1079.979643673961	564.776153304675	370.556176829738	1084.221238204145	494.808023108844	381.298855508752	1059.390376448116	421.585626998348	372.603785557135	975.685664638141	305.108728262079	319.055851652045	1025.057813740033	194.802856238023	391.384955403722	983.481605204014	394.258661767668	608.608633856358	867.060184781626	344.747613151918	669.825470034972	860.167655672437	235.399842098590	618.071424179747	662.195579941040	149.064576302032	593.386651896661	837.091656636174	114.583977835593	628.398288824237	730.467048554533	96.375924939081	662.687112617152	918.022975345407	33.243680637614	647.396119682908	897.585944835506	38.443634105227	427.056234777655	973.903216488487	36.390138991079	349.006292374609	1056.719592022723	96.551237566745	379.085453982423	1185.889847256930	42.431051560024	353.110055160087	918.919439777834	1074.866079525997	181.773768625676	1031.802968475268	838.095803509260	173.444162756761	1054.828295336874	1102.353183258960	742.691659022826	1237.635521867140	920.511115338949	710.931786315205	
90	9.855142857143	797.737450256892	1004.105615108132	490.754102444318	957.782934079678	1429.472567087904	286.627538906871	1070.486235148661	1367.952008894397	443.410885703852	997.865769492139	1446.795878324454	619.903862940845	950.042326808284	1496.804878434956	440.518664706296	1031.686509690639	942.787991548124	596.641552260718	1006.097301143633	964.764780670888	323.201532464729	1071.464746886450	739.427550090508	581.076698668184	993.252975446330	632.131645196472	651.581216314095	1074.423482314829	571.910881897687	579.822050157290	1067.075926411887	465.630825458411	603.352745338499	1069.207060013798	758.029329777249	359.999198226651	990.857947731138	635.548298094257	301.749312540402	1077.699462343491	563.945602274525	368.787122203945	1081.321391064660	494.030554404546	379.783063182022	1056.149416335867	420.895516182523	371.257611148929	971.881686496433	304.691142947469	318.050553241153	1020.399040109728	194.424993136012	390.966510075193	993.006855740721	395.941903826691	608.593488061116	875.128299144315	349.805295371854	669.792789112678	865.468464121837	240.511927747777	618.693303898858	665.583190270507	162.959946235742	594.394504473360	838.363305394863	118.525812882081	629.222459012245	730.823288119224	106.179305653749	663.366866153268	913.583899572381	31.932934696413	647.437024353445	892.168892090608	38.436112892579	426.997002815550	968.468516442487	36.322034286235	348.917188836137	1051.367812984017	96.426336762210	379.002632351343	1180.519757001782	42.116391981053	353.057999389177	925.753702583834	1075.482142633742	176.812672972280	1046.380974963467	842.395940953128	170.040462325034	1047.416147938656	1101.244030492026	741.617516579864	1218.692893603982	906.841610276725	715.758799188559	
91	9.868571428571	797.102191204088	1004.014882089943	487.004747574392	960.074126700777	1429.677547403472	284.283632364726	1071.001361047454	1367.759493344106	442.200149500431	996.687601970572	1446.373054147490	618.132583630215	950.945933552695	1496.839139072552	438.366330011905	1030.534412666204	943.169184922279	594.584149006832	1006.736351185159	964.600325792306	321.079687152010	1075.797239132422	742.069538014723	579.381767607608	1000.727371793941	633.337799790841	650.320854811044	1083.857375851608	574.570003600616	578.990402040017	1078.115493085716	467.381995949186	602.972818707321	1068.698268180924	757.171647103690	357.692899436547	989.409174220707	635.266769863690	299.780014964153	1075.496271841399	563.134129668174	367.143891873340	1078.514625250099	493.250532335333	378.378601794722	1052.987050985983	420.192278628047	370.005097487853	968.137112442876	304.295080098271	317.087026780930	1015.757688225274	194.037884852015	390.562852596355	1002.729042844193	397.934983595140	608.187113867917	883.654140942971	355.018067290311	669.586761098118	871.234927181301	245.903481938335	619.078810737415	669.917973322151	177.127944384167	595.308997652612	840.164539951995	122.959898415242	629.893871589524	732.005853887323	116.511687444154	664.006492479881	909.530825963339	30.587495453316	647.532604258656	886.762144929250	38.424017318325	426.923970574268	963.046000662000	36.259654701794	348.813982711961	1046.009596094198	96.318224180800	378.910152545188	1175.151771782844	41.867210021111	352.999890463389	932.672595553836	1076.055030235559	172.015127121485	1060.882434179102	846.924406840905	166.881279305419	1039.277136583943	1100.056711667499	740.620475042112	1198.595144866162	894.457739957030	720.544566221945	
92	9.882000000000	796.379018395553	1003.915954890054	483.444400531614	962.231660294794	1429.799478682197	282.105204912240	1071.425021248112	1367.508792923807	441.106144284349	995.471181315906	1445.884939785883	616.492991978370	951.840494799496	1496.829095405589	436.354839278742	1029.363614458337	943.568293836881	592.708967462318	1007.272414320120	964.408015671294	319.108858088493	1079.924060125401	744.917564789702	577.470660984344	1008.159119581123	634.783381838015	648.888787766138	1092.985555080795	577.588687270395	577.730345052992	1089.026098752262	469.544880237341	602.053482258829	1068.159892716188	756.349912008936	355.595373411223	987.984702659105	634.974354888530	297.966731110267	1073.354939737856	562.338751886163	365.653233338046	1075.788549970417	492.472605963335	377.120559373263	1049.888875219373	419.486309897030	368.877768707917	964.442406185844	303.932624594929	316.189682117991	1011.134734782000	193.650288755002	390.182172160202	1012.473369060943	400.243259794157	607.396728655252	892.446411728486	360.329735692794	669.171737695627	877.370766958509	251.477911896881	619.217987100853	675.090037438758	191.136721433231	596.069006855483	842.536406928044	127.785438358581	630.402257307418	734.037811718470	127.052108667655	664.565683666677	906.091434347611	29.359489053437	647.688330164221	881.365560067890	38.410991536638	426.840655002522	957.635978500338	36.204820582659	348.702095490558	1040.647799170349	96.226985415430	378.811030549889	1169.786971733529	41.672798941693	352.936659997112	939.649719055401	1076.614715281574	167.426213038940	1075.244551057642	851.691759794107	163.977098977543	1030.390686494833	1098.888635154426	739.709919785246	1177.533542953902	883.480386642144	725.177228746235	
93	9.895428571429	795.616320737411	1003.843484804481	480.092813008781	964.264210009109	1429.878900235281	280.092008302087	1071.763342466822	1367.249562681280	440.131250224569	994.208845765637	1445.387397966940	614.975242266722	952.719170831417	1496.815034383586	434.476801769742	1028.196075838353	944.021756387537	591.038539801871	1007.764150448707	964.233103904802	317.299736295788	1083.763845095282	747.957587240525	575.360147432965	1015.419367688543	636.486351540921	647.294946709566	1101.646239535172	580.943858323313	576.041397832747	1099.636350258202	472.098356113072	600.634925723861	1067.582910757559	755.556001582778	353.714197278301	986.550047587057	634.675839438365	296.332833340538	1071.237319779085	561.556956501277	364.332367516076	1073.103702223311	491.702396865194	376.028826104061	1046.819109517267	418.790566638349	367.892221786127	960.770427009210	303.612418519218	315.373247174239	1006.521052441139	193.272047159908	389.827342491222	1022.075440503502	402.852339329618	606.261463570776	901.313039167034	365.663191201265	668.526299508809	883.790105400070	257.105354537673	619.116251869745	680.960700745153	204.486630250031	596.615621446489	845.545274988162	132.859405505202	630.752362050394	736.937543812862	137.413066248367	665.007088555041	903.568042051468	28.422568401142	647.912487885473	875.976133222553	38.400698989327	426.750521925482	952.236234718614	36.157896154488	348.586676544339	1035.283653836541	96.150854231111	378.706782677043	1164.424253164019	41.519282739667	352.869540268092	946.644288496230	1077.195084777226	163.090223935666	1089.400929477663	856.710661134585	161.337719188172	1020.774758521867	1097.851484320819	738.891099638733	1155.723994427752	873.989277161265	729.551393157219	
